<svg xmlns="http://www.w3.org/2000/svg" xmlns:xlink="http://www.w3.org/1999/xlink" version="1.1" x="0px" y="0px" viewBox="0 0 500 625" enable-background="new 0 0 500 500" xml:space="preserve"><g><g><path d="M250,185.3L250,185.3c-12.5,0-22.7-10.2-22.7-22.7V55.8c0-12.5,10.2-22.7,22.7-22.7h0    c12.5,0,22.7,10.2,22.7,22.7v106.7C272.7,175.1,262.5,185.3,250,185.3z"/><g><path d="M250,180.3c-8.6,0-16.1-6.4-17.5-14.9c-0.3-2.1-0.2-4.3-0.2-6.5c0-9.3,0-18.6,0-27.9     c0-22.9,0-45.8,0-68.7c0-9.3,0.9-18.8,11.1-22.9c8-3.2,17.5,0.1,21.9,7.5c2,3.4,2.4,7.1,2.4,10.9c0.1,21.1,0,42.2,0,63.2     c0,11.7,0,23.4,0,35.1c0,2.1,0.1,4.2,0,6.4C267.4,172.4,259.9,180,250,180.3c-6.4,0.2-6.4,10.2,0,10     c16.4-0.5,27.6-13.4,27.7-29.4c0-9.4,0-18.7,0-28.1c0-24.7,0-49.3,0-74c0-14.1-7.5-27.2-22.3-30.1c-17.5-3.4-32.7,10.2-33.1,27.6     c-0.5,22.4,0,44.8,0,67.2c0,12,0,24.1,0,36.1c0,5.1,0.4,9.9,2.6,14.6c4.5,9.7,14.4,16,25.1,16C256.4,190.3,256.4,180.3,250,180.3     z"/></g></g><g><path d="M250,466.8L250,466.8c-12.5,0-22.7-10.2-22.7-22.7V337.4c0-12.5,10.2-22.7,22.7-22.7h0    c12.5,0,22.7,10.2,22.7,22.7v106.7C272.7,456.6,262.5,466.8,250,466.8z"/><g><path d="M250,461.8c-8.6,0-16.1-6.4-17.5-14.9c-0.3-2.1-0.2-4.3-0.2-6.5c0-9.3,0-18.6,0-27.9     c0-22.9,0-45.8,0-68.7c0-9.3,0.9-18.8,11.1-22.9c8-3.2,17.5,0.1,21.9,7.5c2,3.4,2.4,7.1,2.4,10.9c0.1,21.1,0,42.2,0,63.2     c0,11.7,0,23.4,0,35.1c0,2.1,0.1,4.2,0,6.4C267.4,453.9,259.9,461.5,250,461.8c-6.4,0.2-6.4,10.2,0,10     c16.4-0.5,27.6-13.4,27.7-29.4c0-9.4,0-18.7,0-28.1c0-24.7,0-49.3,0-74c0-14.1-7.5-27.2-22.3-30.1c-17.5-3.4-32.7,10.2-33.1,27.6     c-0.5,22.4,0,44.8,0,67.2c0,12,0,24.1,0,36.1c0,5.1,0.4,9.9,2.6,14.6c4.5,9.7,14.4,16,25.1,16C256.4,471.8,256.4,461.8,250,461.8     z"/></g></g></g><g><g><path d="M185.3,250L185.3,250c0,12.5-10.2,22.7-22.7,22.7H55.8c-12.5,0-22.7-10.2-22.7-22.7v0    c0-12.5,10.2-22.7,22.7-22.7h106.7C175.1,227.3,185.3,237.4,185.3,250z"/><g><path d="M180.3,250c0,8.6-6.4,16.1-14.9,17.5c-2.1,0.3-4.3,0.2-6.5,0.2c-9.3,0-18.6,0-27.9,0     c-22.9,0-45.8,0-68.7,0c-9.3,0-18.8-0.9-22.9-11.1c-3.2-8,0.1-17.5,7.5-21.9c3.4-2,7.1-2.4,10.9-2.4c21.1-0.1,42.2,0,63.2,0     c11.7,0,23.4,0,35.1,0c2.1,0,4.2-0.1,6.4,0C172.4,232.6,180,240.1,180.3,250c0.2,6.4,10.2,6.4,10,0     c-0.5-16.4-13.4-27.6-29.4-27.7c-9.4,0-18.7,0-28.1,0c-24.7,0-49.3,0-74,0c-14.1,0-27.2,7.5-30.1,22.3     c-3.4,17.5,10.2,32.7,27.6,33.1c22.4,0.5,44.8,0,67.2,0c12,0,24.1,0,36.1,0c5.1,0,9.9-0.4,14.6-2.6c9.7-4.5,16-14.4,16-25.1     C190.3,243.5,180.3,243.5,180.3,250z"/></g></g><g><path d="M466.8,250L466.8,250c0,12.5-10.2,22.7-22.7,22.7H337.4c-12.5,0-22.7-10.2-22.7-22.7v0    c0-12.5,10.2-22.7,22.7-22.7h106.7C456.6,227.3,466.8,237.4,466.8,250z"/><g><path d="M461.8,250c0,8.6-6.4,16.1-14.9,17.5c-2.1,0.3-4.3,0.2-6.5,0.2c-9.3,0-18.6,0-27.9,0     c-22.9,0-45.8,0-68.7,0c-9.3,0-18.8-0.9-22.9-11.1c-3.2-8,0.1-17.5,7.5-21.9c3.4-2,7.1-2.4,10.9-2.4c21.1-0.1,42.2,0,63.2,0     c11.7,0,23.4,0,35.1,0c2.1,0,4.2-0.1,6.4,0C453.9,232.6,461.5,240.1,461.8,250c0.2,6.4,10.2,6.4,10,0     c-0.5-16.4-13.4-27.6-29.4-27.7c-9.4,0-18.7,0-28.1,0c-24.7,0-49.3,0-74,0c-14.1,0-27.2,7.5-30.1,22.3     c-3.4,17.5,10.2,32.7,27.6,33.1c22.4,0.5,44.8,0,67.2,0c12,0,24.1,0,36.1,0c5.1,0,9.9-0.4,14.6-2.6c9.7-4.5,16-14.4,16-25.1     C471.8,243.5,461.8,243.5,461.8,250z"/></g></g></g><g><g><path d="M204.2,204.2L204.2,204.2c-8.9,8.9-23.2,8.9-32.1,0l-75.5-75.5c-8.9-8.9-8.9-23.2,0-32.1l0,0    c8.9-8.9,23.2-8.9,32.1,0l75.5,75.5C213.1,181,213.1,195.4,204.2,204.2z"/><g><path d="M200.7,200.7c-6.4,6.4-17,6.9-24,1c-1.4-1.2-2.7-2.6-4-3.9c-6.5-6.5-12.9-12.9-19.4-19.4     c-16.2-16.2-32.4-32.4-48.6-48.6c-6.5-6.5-12.4-13.6-8.5-23.6c3.3-8.5,13.1-13,21.7-10.3c3.5,1.1,6.2,3.3,8.7,5.9     c14.8,14.8,29.5,29.5,44.3,44.3c8.3,8.3,16.7,16.7,25,25c1.5,1.5,3.2,3.1,4.7,4.7C207.4,182.8,207.5,193.4,200.7,200.7     c-4.4,4.7,2.7,11.8,7.1,7.1c11.2-12,10.1-29-1.2-40.3c-6.7-6.7-13.4-13.4-20.2-20.2c-17.3-17.3-34.7-34.7-52-52     c-9.9-9.9-24.5-14-37-5.6c-14.8,9.9-16.1,30.6-3.9,43.1c15.6,16,31.6,31.6,47.4,47.4c8.4,8.4,16.9,16.9,25.3,25.3     c3.4,3.4,6.9,6.5,11.4,8.4c10.2,4.2,22.3,1.8,30.1-6C212.3,203.2,205.2,196.1,200.7,200.7z"/></g></g><g><path d="M403.3,403.3L403.3,403.3c-8.9,8.9-23.2,8.9-32.1,0l-75.5-75.5c-8.9-8.9-8.9-23.2,0-32.1l0,0    c8.9-8.9,23.2-8.9,32.1,0l75.5,75.5C412.1,380.1,412.1,394.4,403.3,403.3z"/><g><path d="M399.8,399.8c-6.4,6.4-17,6.9-24,1c-1.4-1.2-2.7-2.6-4-3.9c-6.5-6.5-12.9-12.9-19.4-19.4     c-16.2-16.2-32.4-32.4-48.6-48.6c-6.5-6.5-12.4-13.6-8.5-23.6c3.3-8.5,13.1-13,21.7-10.3c3.5,1.1,6.2,3.3,8.7,5.9     c14.8,14.8,29.5,29.5,44.3,44.3c8.3,8.3,16.7,16.7,25,25c1.5,1.5,3.2,3.1,4.7,4.7C406.5,381.9,406.6,392.5,399.8,399.8     c-4.4,4.7,2.7,11.8,7.1,7.1c11.2-12,10.1-29-1.2-40.3c-6.7-6.7-13.4-13.4-20.2-20.2c-17.3-17.3-34.7-34.7-52-52     c-9.9-9.9-24.5-14-37-5.6c-14.8,9.9-16.1,30.6-3.9,43.1c15.6,16,31.6,31.6,47.4,47.4c8.4,8.4,16.9,16.9,25.3,25.3     c3.4,3.4,6.9,6.5,11.4,8.4c10.2,4.2,22.3,1.8,30.1-6C411.4,402.3,404.3,395.2,399.8,399.8z"/></g></g></g><g><path d="M295.7,204.2L295.7,204.2c8.9,8.9,23.2,8.9,32.1,0l75.5-75.5c8.9-8.9,8.9-23.2,0-32.1l0,0   c-8.9-8.9-23.2-8.9-32.1,0l-75.5,75.5C286.9,181,286.9,195.4,295.7,204.2z"/><g><path d="M292.2,207.7c11.5,11.5,29.1,9.9,40.2-1c6.6-6.5,13.1-13.1,19.7-19.7c17.5-17.5,34.9-34.9,52.4-52.4    c9.7-9.7,14.1-23.4,6.6-36c-9.4-15.8-30.8-17.5-43.7-5.1c-15.9,15.3-31.2,31.2-46.8,46.8c-8.6,8.6-17.1,17.1-25.7,25.7    c-3.2,3.2-6.2,6.3-8.1,10.5C281.8,187.2,284.3,199.3,292.2,207.7c4.4,4.7,11.5-2.4,7.1-7.1c-6.8-7.2-6.8-17.8,0-25    c1-1.1,2.1-2.1,3.2-3.2c6.6-6.6,13.2-13.2,19.8-19.8c16.1-16.1,32.2-32.2,48.3-48.3c6.7-6.7,14.6-12.4,24.6-7.5    c8.1,4,12,14,8.6,22.4c-1.2,3.1-3.4,5.4-5.7,7.7c-14.9,14.9-29.8,29.8-44.7,44.7c-8.2,8.2-16.4,16.4-24.7,24.7    c-1.4,1.4-2.8,2.9-4.3,4.3c-7,6.6-18,7-25,0C294.7,196.1,287.6,203.2,292.2,207.7z"/></g></g><text x="0" y="515" fill="#000000" font-size="5px" font-weight="bold" font-family="'Helvetica Neue', Helvetica, Arial-Unicode, Arial, Sans-serif">Created by Neha Tyagi</text><text x="0" y="520" fill="#000000" font-size="5px" font-weight="bold" font-family="'Helvetica Neue', Helvetica, Arial-Unicode, Arial, Sans-serif">from the Noun Project</text></svg>